<svg fill="none" xmlns="http://www.w3.org/2000/svg">
  <symbol id="logo-full" viewBox="0 0 205 56">
    <use href="#brain-logo" width="55" height="55" />
    <path
      d="M78.9824 23.6787C78.9824 23.3613 78.9539 23.0724 78.897 22.812C78.84 22.5516 78.7179 22.3115 78.5308 22.0918C78.3517 21.8721 78.0872 21.6523 77.7373 21.4326C77.3955 21.2129 76.9479 20.985 76.3945 20.749C75.7354 20.4723 75.0965 20.1794 74.478 19.8701C73.8595 19.5527 73.3021 19.1865 72.8057 18.7715C72.3092 18.3564 71.9146 17.8682 71.6216 17.3066C71.3368 16.737 71.1943 16.0697 71.1943 15.3047C71.1943 14.556 71.3286 13.8765 71.5972 13.2661C71.8739 12.6558 72.2645 12.1349 72.769 11.7036C73.2736 11.2642 73.8636 10.9264 74.5391 10.6904C75.2227 10.4544 75.9836 10.3364 76.8218 10.3364C77.9611 10.3364 78.9458 10.5724 79.7759 11.0444C80.6141 11.5164 81.2611 12.1634 81.7168 12.9854C82.1807 13.8073 82.4126 14.7513 82.4126 15.8174H78.8481C78.8481 15.3128 78.7749 14.8693 78.6284 14.4868C78.4901 14.0962 78.2663 13.791 77.957 13.5713C77.6478 13.3516 77.249 13.2417 76.7607 13.2417C76.305 13.2417 75.9266 13.3353 75.6255 13.5225C75.3325 13.7015 75.1128 13.9497 74.9663 14.2671C74.828 14.5763 74.7588 14.9263 74.7588 15.3169C74.7588 15.6099 74.828 15.8743 74.9663 16.1104C75.1128 16.3382 75.3122 16.5457 75.5645 16.7329C75.8167 16.9119 76.1138 17.0869 76.4556 17.2578C76.8055 17.4287 77.188 17.5955 77.603 17.7583C78.4087 18.0757 79.1208 18.4256 79.7393 18.8081C80.3577 19.1825 80.8745 19.6056 81.2896 20.0776C81.7046 20.5415 82.0179 21.0664 82.2295 21.6523C82.4411 22.2383 82.5469 22.9056 82.5469 23.6543C82.5469 24.3949 82.4167 25.0703 82.1562 25.6807C81.904 26.2829 81.5337 26.8037 81.0454 27.2432C80.5571 27.6745 79.9671 28.0081 79.2754 28.2441C78.5918 28.4801 77.8268 28.5981 76.9805 28.5981C76.1585 28.5981 75.3813 28.4842 74.6489 28.2563C73.9165 28.0203 73.2695 27.6663 72.708 27.1943C72.1546 26.7142 71.7192 26.1079 71.4019 25.3755C71.0845 24.6349 70.9258 23.7601 70.9258 22.751H74.5024C74.5024 23.2881 74.5553 23.7479 74.6611 24.1304C74.7669 24.5047 74.9297 24.8058 75.1494 25.0337C75.3691 25.2534 75.6377 25.4202 75.9551 25.5342C76.2806 25.64 76.6509 25.6929 77.0659 25.6929C77.5379 25.6929 77.9123 25.6034 78.189 25.4243C78.4738 25.2453 78.6772 25.0052 78.7993 24.7041C78.9214 24.403 78.9824 24.0612 78.9824 23.6787Z"
      fill="#F2F5F7" />
    <path
      d="M88.2354 17.8804V28.354H84.8052V15.146H88.0278L88.2354 17.8804ZM87.7471 21.2983L86.8071 21.3228C86.7909 20.395 86.8722 19.5405 87.0513 18.7593C87.2303 17.978 87.4989 17.2985 87.8569 16.7207C88.2231 16.1429 88.6829 15.6953 89.2363 15.3779C89.7897 15.0605 90.4367 14.9019 91.1772 14.9019C91.6574 14.9019 92.1009 14.9914 92.5078 15.1704C92.9147 15.3413 93.2687 15.6139 93.5698 15.9883C93.8709 16.3545 94.1029 16.8346 94.2656 17.4287C94.4284 18.0146 94.5098 18.7186 94.5098 19.5405V28.354H91.0918V19.9556C91.0918 19.3696 91.0348 18.922 90.9209 18.6128C90.807 18.2954 90.6442 18.0757 90.4326 17.9536C90.221 17.8234 89.9606 17.7583 89.6514 17.7583C89.3258 17.7583 89.041 17.8478 88.7969 18.0269C88.5527 18.2059 88.3534 18.4582 88.1987 18.7837C88.0522 19.1011 87.9383 19.4754 87.8569 19.9067C87.7837 20.3381 87.7471 20.8019 87.7471 21.2983ZM94.1802 20.9565L92.9473 21.1152C92.931 20.2445 93.0083 19.4347 93.1792 18.686C93.3501 17.9292 93.6146 17.27 93.9727 16.7085C94.3307 16.1388 94.7783 15.6953 95.3154 15.3779C95.8607 15.0605 96.4914 14.9019 97.2075 14.9019C97.7446 14.9019 98.2329 14.9914 98.6724 15.1704C99.1118 15.3494 99.4862 15.6383 99.7954 16.0371C100.113 16.4277 100.353 16.9445 100.516 17.5874C100.687 18.2303 100.772 19.0116 100.772 19.9312V28.354H97.3418V19.9434C97.3418 19.3493 97.2848 18.8936 97.1709 18.5762C97.057 18.2588 96.8942 18.0431 96.6826 17.9292C96.471 17.8153 96.2188 17.7583 95.9258 17.7583C95.6328 17.7583 95.3765 17.8397 95.1567 18.0024C94.9451 18.1652 94.7661 18.3931 94.6196 18.686C94.4731 18.9709 94.3633 19.3086 94.29 19.6992C94.2168 20.0817 94.1802 20.5008 94.1802 20.9565Z"
      fill="#F2F5F7" />
    <path
      d="M109.17 25.3145V19.2109C109.17 18.8122 109.122 18.4948 109.024 18.2588C108.934 18.0228 108.796 17.8519 108.609 17.7461C108.43 17.6322 108.21 17.5752 107.95 17.5752C107.657 17.5752 107.413 17.6362 107.217 17.7583C107.022 17.8804 106.875 18.0553 106.778 18.2832C106.688 18.5111 106.644 18.7837 106.644 19.1011H103.213C103.213 18.5314 103.323 17.9943 103.543 17.4897C103.763 16.9771 104.084 16.5295 104.507 16.147C104.939 15.7563 105.451 15.4512 106.045 15.2314C106.639 15.0117 107.307 14.9019 108.047 14.9019C108.926 14.9019 109.708 15.0524 110.391 15.3535C111.075 15.6465 111.616 16.1144 112.015 16.7573C112.413 17.4002 112.613 18.2344 112.613 19.2598V25.1436C112.613 25.8841 112.649 26.4863 112.723 26.9502C112.804 27.4141 112.922 27.8128 113.077 28.1465V28.354H109.634C109.48 27.9878 109.362 27.5321 109.28 26.9868C109.207 26.4334 109.17 25.876 109.17 25.3145ZM109.585 20.2852L109.598 22.3359H108.34C108.015 22.3359 107.73 22.3888 107.486 22.4946C107.25 22.6004 107.05 22.751 106.888 22.9463C106.725 23.1335 106.603 23.3532 106.521 23.6055C106.448 23.8577 106.412 24.1263 106.412 24.4111C106.412 24.7285 106.456 24.9971 106.546 25.2168C106.635 25.4365 106.77 25.6034 106.949 25.7173C107.128 25.8312 107.339 25.8882 107.583 25.8882C107.958 25.8882 108.283 25.8109 108.56 25.6562C108.837 25.5016 109.04 25.3145 109.17 25.0947C109.309 24.875 109.354 24.6715 109.305 24.4844L110.086 25.8149C109.988 26.116 109.854 26.4294 109.683 26.7549C109.52 27.0804 109.313 27.3815 109.061 27.6582C108.808 27.9349 108.495 28.1628 108.121 28.3418C107.754 28.5127 107.319 28.5981 106.814 28.5981C106.106 28.5981 105.459 28.4354 104.874 28.1099C104.288 27.7843 103.824 27.3286 103.482 26.7427C103.148 26.1567 102.981 25.4609 102.981 24.6553C102.981 23.988 103.087 23.3857 103.299 22.8486C103.519 22.3034 103.844 21.8436 104.275 21.4692C104.707 21.0868 105.252 20.7938 105.911 20.5903C106.57 20.3869 107.343 20.2852 108.23 20.2852H109.585Z"
      fill="#F2F5F7" />
    <path
      d="M118.558 18.0879V28.354H115.14V15.146H118.362L118.558 18.0879ZM121.67 15.0483L121.622 18.4541C121.467 18.4215 121.28 18.3971 121.06 18.3809C120.848 18.3646 120.661 18.3564 120.499 18.3564C120.116 18.3564 119.791 18.4175 119.522 18.5396C119.253 18.6535 119.03 18.8285 118.851 19.0645C118.68 19.2923 118.549 19.5771 118.46 19.9189C118.37 20.2607 118.318 20.6473 118.301 21.0786L117.654 20.8345C117.654 19.9718 117.719 19.1825 117.85 18.4663C117.988 17.742 118.191 17.1154 118.46 16.5864C118.729 16.0493 119.05 15.6343 119.424 15.3413C119.807 15.0483 120.238 14.9019 120.718 14.9019C120.881 14.9019 121.052 14.9181 121.231 14.9507C121.418 14.9751 121.565 15.0076 121.67 15.0483Z"
      fill="#F2F5F7" />
    <path
      d="M129.788 15.146V17.7217H123.05V15.146H129.788ZM124.6 11.8867H128.006V24.3257C128.006 24.6919 128.042 24.9727 128.116 25.168C128.189 25.3633 128.299 25.5016 128.445 25.583C128.6 25.6562 128.803 25.6929 129.056 25.6929C129.227 25.6929 129.385 25.6847 129.532 25.6685C129.678 25.644 129.788 25.6196 129.861 25.5952V28.2686C129.593 28.3743 129.308 28.4557 129.007 28.5127C128.714 28.5697 128.364 28.5981 127.957 28.5981C127.273 28.5981 126.679 28.4679 126.175 28.2075C125.678 27.9471 125.292 27.5321 125.015 26.9624C124.738 26.3846 124.6 25.6278 124.6 24.6919V11.8867Z"
      fill="#F2F5F7" />
    <path
      d="M142.264 28.354H139.126L139.151 25.3999H142.264C143.126 25.3999 143.798 25.2453 144.278 24.936C144.758 24.6268 145.096 24.1385 145.291 23.4712C145.494 22.8039 145.596 21.929 145.596 20.8467V18.0757C145.596 17.2537 145.543 16.5579 145.438 15.9883C145.332 15.4105 145.153 14.9466 144.9 14.5967C144.648 14.2386 144.31 13.9741 143.887 13.8032C143.464 13.6323 142.939 13.5469 142.312 13.5469H139.065V10.5806H142.312C143.338 10.5806 144.27 10.7474 145.108 11.0811C145.946 11.4147 146.666 11.903 147.269 12.5459C147.871 13.1807 148.335 13.966 148.66 14.9019C148.986 15.8377 149.148 16.9038 149.148 18.1001V20.8467C149.148 22.0511 148.986 23.1172 148.66 24.0449C148.335 24.9727 147.871 25.758 147.269 26.4009C146.674 27.0356 145.954 27.5199 145.108 27.8535C144.262 28.1872 143.313 28.354 142.264 28.354ZM141.202 10.5806V28.354H137.625V10.5806H141.202Z"
      fill="#F2F5F7" />
    <path
      d="M156.912 28.5981C156.009 28.5981 155.207 28.4598 154.507 28.1831C153.816 27.9064 153.23 27.5076 152.75 26.9868C152.269 26.4578 151.903 25.819 151.651 25.0703C151.399 24.3216 151.272 23.4671 151.272 22.5068V21.4204C151.272 20.3462 151.395 19.4062 151.639 18.6006C151.883 17.7868 152.229 17.1032 152.676 16.5498C153.124 15.9964 153.673 15.5854 154.324 15.3169C154.983 15.0402 155.728 14.9019 156.558 14.9019C157.388 14.9019 158.117 15.0402 158.743 15.3169C159.378 15.5854 159.903 15.9924 160.318 16.5376C160.733 17.0747 161.046 17.742 161.258 18.5396C161.469 19.3371 161.575 20.2648 161.575 21.3228V22.8853H152.725V20.4805H158.218V20.1753C158.218 19.6382 158.161 19.1906 158.047 18.8325C157.933 18.4663 157.754 18.1937 157.51 18.0146C157.266 17.8356 156.941 17.7461 156.534 17.7461C156.192 17.7461 155.903 17.8153 155.667 17.9536C155.431 18.092 155.244 18.3076 155.105 18.6006C154.967 18.8936 154.865 19.276 154.8 19.748C154.735 20.2119 154.703 20.7694 154.703 21.4204V22.5068C154.703 23.1172 154.756 23.6299 154.861 24.0449C154.967 24.4518 155.122 24.7855 155.325 25.0459C155.537 25.2982 155.793 25.4813 156.094 25.5952C156.395 25.701 156.745 25.7539 157.144 25.7539C157.746 25.7539 158.287 25.6481 158.768 25.4365C159.256 25.2168 159.671 24.9198 160.013 24.5454L161.38 26.6206C161.144 26.9299 160.818 27.2391 160.403 27.5483C159.988 27.8576 159.492 28.1099 158.914 28.3052C158.336 28.5005 157.669 28.5981 156.912 28.5981Z"
      fill="#F2F5F7" />
    <path
      d="M167.276 25.7173L169.4 15.146H172.964L169.339 28.354H167.203L167.276 25.7173ZM166.019 15.146L168.179 25.7295L168.216 28.354H166.067L162.442 15.146H166.019Z"
      fill="#F2F5F7" />
    <path
      d="M178.201 15.146V28.354H174.771V15.146H178.201ZM174.612 11.728C174.612 11.1991 174.779 10.7637 175.113 10.4219C175.455 10.0719 175.91 9.89697 176.48 9.89697C177.058 9.89697 177.514 10.0719 177.847 10.4219C178.181 10.7637 178.348 11.1991 178.348 11.728C178.348 12.2489 178.177 12.6842 177.835 13.0342C177.501 13.376 177.054 13.5469 176.492 13.5469C175.914 13.5469 175.455 13.376 175.113 13.0342C174.779 12.6842 174.612 12.2489 174.612 11.728Z"
      fill="#F2F5F7" />
    <path
      d="M185.684 25.7539C186.001 25.7539 186.274 25.6888 186.502 25.5586C186.738 25.4284 186.917 25.2168 187.039 24.9238C187.161 24.6309 187.226 24.2524 187.234 23.7886H190.445C190.445 24.7814 190.233 25.64 189.81 26.3643C189.395 27.0804 188.833 27.6338 188.125 28.0244C187.426 28.4069 186.632 28.5981 185.745 28.5981C184.858 28.5981 184.085 28.4557 183.426 28.1709C182.767 27.8861 182.221 27.471 181.79 26.9258C181.367 26.3805 181.045 25.7173 180.826 24.936C180.614 24.1466 180.508 23.2433 180.508 22.2261V21.2617C180.508 20.2607 180.614 19.3656 180.826 18.5762C181.045 17.7868 181.367 17.1195 181.79 16.5742C182.221 16.029 182.763 15.6139 183.414 15.3291C184.073 15.0443 184.846 14.9019 185.733 14.9019C186.685 14.9019 187.511 15.1012 188.211 15.5C188.911 15.8906 189.456 16.4684 189.847 17.2334C190.245 17.9984 190.445 18.9424 190.445 20.0654H187.234C187.226 19.5609 187.165 19.1418 187.051 18.8081C186.945 18.4663 186.779 18.2059 186.551 18.0269C186.331 17.8397 186.038 17.7461 185.672 17.7461C185.289 17.7461 184.98 17.8275 184.744 17.9902C184.516 18.1449 184.341 18.3727 184.219 18.6738C184.105 18.9668 184.028 19.333 183.987 19.7725C183.947 20.2119 183.926 20.7083 183.926 21.2617V22.2261C183.926 22.8201 183.943 23.3369 183.975 23.7764C184.016 24.2077 184.093 24.5739 184.207 24.875C184.329 25.168 184.504 25.3877 184.732 25.5342C184.968 25.6807 185.285 25.7539 185.684 25.7539Z"
      fill="#F2F5F7" />
    <path
      d="M197.732 28.5981C196.829 28.5981 196.028 28.4598 195.328 28.1831C194.636 27.9064 194.05 27.5076 193.57 26.9868C193.09 26.4578 192.723 25.819 192.471 25.0703C192.219 24.3216 192.093 23.4671 192.093 22.5068V21.4204C192.093 20.3462 192.215 19.4062 192.459 18.6006C192.703 17.7868 193.049 17.1032 193.497 16.5498C193.944 15.9964 194.493 15.5854 195.145 15.3169C195.804 15.0402 196.548 14.9019 197.378 14.9019C198.208 14.9019 198.937 15.0402 199.563 15.3169C200.198 15.5854 200.723 15.9924 201.138 16.5376C201.553 17.0747 201.867 17.742 202.078 18.5396C202.29 19.3371 202.396 20.2648 202.396 21.3228V22.8853H193.545V20.4805H199.039V20.1753C199.039 19.6382 198.982 19.1906 198.868 18.8325C198.754 18.4663 198.575 18.1937 198.331 18.0146C198.086 17.8356 197.761 17.7461 197.354 17.7461C197.012 17.7461 196.723 17.8153 196.487 17.9536C196.251 18.092 196.064 18.3076 195.926 18.6006C195.787 18.8936 195.686 19.276 195.621 19.748C195.556 20.2119 195.523 20.7694 195.523 21.4204V22.5068C195.523 23.1172 195.576 23.6299 195.682 24.0449C195.787 24.4518 195.942 24.7855 196.146 25.0459C196.357 25.2982 196.613 25.4813 196.915 25.5952C197.216 25.701 197.566 25.7539 197.964 25.7539C198.567 25.7539 199.108 25.6481 199.588 25.4365C200.076 25.2168 200.491 24.9198 200.833 24.5454L202.2 26.6206C201.964 26.9299 201.639 27.2391 201.224 27.5483C200.809 27.8576 200.312 28.1099 199.734 28.3052C199.157 28.5005 198.489 28.5981 197.732 28.5981Z"
      fill="#F2F5F7" />
    <path
      d="M72.5889 45.6626L74.3115 40.0142H75.8232L73.2803 47.3208C73.2217 47.4771 73.1455 47.647 73.0518 47.8306C72.958 48.0142 72.835 48.188 72.6826 48.3521C72.5342 48.52 72.3486 48.6548 72.126 48.7563C71.9033 48.8618 71.6338 48.9146 71.3174 48.9146C71.1924 48.9146 71.0713 48.9028 70.9541 48.8794C70.8408 48.8599 70.7334 48.8384 70.6318 48.8149L70.626 47.7368C70.665 47.7407 70.7119 47.7446 70.7666 47.7485C70.8252 47.7524 70.8721 47.7544 70.9072 47.7544C71.1416 47.7544 71.3369 47.7251 71.4932 47.6665C71.6494 47.6118 71.7764 47.522 71.874 47.397C71.9756 47.272 72.0615 47.104 72.1318 46.8931L72.5889 45.6626ZM71.6162 40.0142L73.1221 44.7603L73.374 46.2485L72.3955 46.5005L70.0928 40.0142H71.6162Z"
      fill="#F8FDFF" fill-opacity="0.7" />
    <path
      d="M80.3994 44.6431L82.2861 40.0142H83.5107L80.8799 46.354H79.9189L77.2939 40.0142H78.5186L80.3994 44.6431ZM78.1553 40.0142V46.354H76.7432V40.0142H78.1553ZM82.6436 46.354V40.0142H84.0615V46.354H82.6436Z"
      fill="#F8FDFF" fill-opacity="0.7" />
    <path
      d="M89.9736 42.6626V43.7759H86.6924V42.6626H89.9736ZM87.1025 40.0142V46.354H85.6904V40.0142H87.1025ZM90.9932 40.0142V46.354H89.5811V40.0142H90.9932Z"
      fill="#F8FDFF" fill-opacity="0.7" />
    <path
      d="M93.5479 42.0298H95.417C95.9639 42.0298 96.4287 42.1216 96.8115 42.3052C97.1943 42.4888 97.4854 42.7446 97.6846 43.0728C97.8877 43.397 97.9893 43.7681 97.9893 44.186C97.9893 44.4946 97.9326 44.7817 97.8193 45.0474C97.7061 45.3091 97.5381 45.5376 97.3154 45.7329C97.0967 45.9282 96.8271 46.0806 96.5068 46.1899C96.1904 46.2993 95.8271 46.354 95.417 46.354H92.6104V40.0142H94.0283V45.2349H95.417C95.6982 45.2349 95.9229 45.186 96.0908 45.0884C96.2588 44.9907 96.3799 44.8638 96.4541 44.7075C96.5322 44.5513 96.5713 44.3853 96.5713 44.2095C96.5713 44.0298 96.5322 43.8599 96.4541 43.6997C96.3799 43.5396 96.2588 43.4087 96.0908 43.3071C95.9229 43.2056 95.6982 43.1548 95.417 43.1548H93.5479V42.0298ZM100.485 40.0142V46.354H99.0732V40.0142H100.485Z"
      fill="#F8FDFF" fill-opacity="0.7" />
    <path
      d="M104.95 46.4712C104.481 46.4712 104.058 46.395 103.679 46.2427C103.304 46.0864 102.983 45.8696 102.718 45.5923C102.456 45.3149 102.255 44.9888 102.114 44.6138C101.974 44.2388 101.903 43.8345 101.903 43.4009V43.1665C101.903 42.6704 101.976 42.2212 102.12 41.8188C102.265 41.4165 102.466 41.0728 102.724 40.7876C102.981 40.4985 103.286 40.2778 103.638 40.1255C103.989 39.9731 104.37 39.897 104.78 39.897C105.233 39.897 105.63 39.9731 105.97 40.1255C106.31 40.2778 106.591 40.4927 106.813 40.77C107.04 41.0435 107.208 41.3696 107.317 41.7485C107.431 42.1274 107.487 42.5454 107.487 43.0024V43.606H102.589V42.5923H106.093V42.481C106.085 42.2271 106.034 41.9888 105.94 41.7661C105.851 41.5435 105.712 41.3638 105.524 41.2271C105.337 41.0903 105.087 41.022 104.774 41.022C104.54 41.022 104.331 41.0728 104.147 41.1743C103.968 41.272 103.817 41.4146 103.696 41.6021C103.575 41.7896 103.481 42.0161 103.415 42.2817C103.353 42.5435 103.321 42.8384 103.321 43.1665V43.4009C103.321 43.6782 103.358 43.936 103.433 44.1743C103.511 44.4087 103.624 44.6138 103.772 44.7896C103.921 44.9653 104.101 45.104 104.312 45.2056C104.522 45.3032 104.763 45.3521 105.032 45.3521C105.372 45.3521 105.675 45.2837 105.94 45.147C106.206 45.0103 106.437 44.8169 106.632 44.5669L107.376 45.2876C107.239 45.4868 107.062 45.6782 106.843 45.8618C106.624 46.0415 106.356 46.188 106.04 46.3013C105.728 46.4146 105.364 46.4712 104.95 46.4712Z"
      fill="#F8FDFF" fill-opacity="0.7" />
    <path d="M114.519 40.0142V46.354H113.101V40.0142H114.519ZM116.599 40.0142V41.1274H111.056V40.0142H116.599Z"
      fill="#F8FDFF" fill-opacity="0.7" />
    <path
      d="M119.903 46.4712C119.435 46.4712 119.011 46.395 118.632 46.2427C118.257 46.0864 117.937 45.8696 117.671 45.5923C117.409 45.3149 117.208 44.9888 117.067 44.6138C116.927 44.2388 116.856 43.8345 116.856 43.4009V43.1665C116.856 42.6704 116.929 42.2212 117.073 41.8188C117.218 41.4165 117.419 41.0728 117.677 40.7876C117.935 40.4985 118.239 40.2778 118.591 40.1255C118.942 39.9731 119.323 39.897 119.733 39.897C120.187 39.897 120.583 39.9731 120.923 40.1255C121.263 40.2778 121.544 40.4927 121.767 40.77C121.993 41.0435 122.161 41.3696 122.271 41.7485C122.384 42.1274 122.44 42.5454 122.44 43.0024V43.606H117.542V42.5923H121.046V42.481C121.038 42.2271 120.987 41.9888 120.894 41.7661C120.804 41.5435 120.665 41.3638 120.478 41.2271C120.29 41.0903 120.04 41.022 119.728 41.022C119.493 41.022 119.284 41.0728 119.101 41.1743C118.921 41.272 118.771 41.4146 118.649 41.6021C118.528 41.7896 118.435 42.0161 118.368 42.2817C118.306 42.5435 118.274 42.8384 118.274 43.1665V43.4009C118.274 43.6782 118.312 43.936 118.386 44.1743C118.464 44.4087 118.577 44.6138 118.726 44.7896C118.874 44.9653 119.054 45.104 119.265 45.2056C119.476 45.3032 119.716 45.3521 119.985 45.3521C120.325 45.3521 120.628 45.2837 120.894 45.147C121.159 45.0103 121.39 44.8169 121.585 44.5669L122.329 45.2876C122.192 45.4868 122.015 45.6782 121.796 45.8618C121.577 46.0415 121.31 46.188 120.993 46.3013C120.681 46.4146 120.317 46.4712 119.903 46.4712Z"
      fill="#F8FDFF" fill-opacity="0.7" />
    <path
      d="M124.62 40.0142L125.827 42.1177L127.058 40.0142H128.61L126.688 43.1255L128.687 46.354H127.134L125.845 44.1626L124.556 46.354H122.997L124.989 43.1255L123.073 40.0142H124.62Z"
      fill="#F8FDFF" fill-opacity="0.7" />
    <path
      d="M133.907 42.6626V43.7759H130.626V42.6626H133.907ZM131.036 40.0142V46.354H129.624V40.0142H131.036ZM134.927 40.0142V46.354H133.515V40.0142H134.927Z"
      fill="#F8FDFF" fill-opacity="0.7" />
    <path
      d="M136.163 43.2544V43.1196C136.163 42.6626 136.229 42.2388 136.362 41.8481C136.495 41.4536 136.687 41.1118 136.937 40.8228C137.19 40.5298 137.499 40.3032 137.862 40.1431C138.229 39.979 138.644 39.897 139.104 39.897C139.569 39.897 139.983 39.979 140.347 40.1431C140.714 40.3032 141.024 40.5298 141.278 40.8228C141.532 41.1118 141.726 41.4536 141.858 41.8481C141.991 42.2388 142.058 42.6626 142.058 43.1196V43.2544C142.058 43.7114 141.991 44.1353 141.858 44.5259C141.726 44.9165 141.532 45.2583 141.278 45.5513C141.024 45.8403 140.716 46.0669 140.353 46.231C139.989 46.3911 139.577 46.4712 139.116 46.4712C138.651 46.4712 138.235 46.3911 137.868 46.231C137.505 46.0669 137.196 45.8403 136.942 45.5513C136.688 45.2583 136.495 44.9165 136.362 44.5259C136.229 44.1353 136.163 43.7114 136.163 43.2544ZM137.575 43.1196V43.2544C137.575 43.5396 137.604 43.8091 137.663 44.063C137.722 44.3169 137.813 44.5396 137.938 44.731C138.063 44.9224 138.224 45.0728 138.419 45.1821C138.614 45.2915 138.847 45.3462 139.116 45.3462C139.378 45.3462 139.604 45.2915 139.796 45.1821C139.991 45.0728 140.151 44.9224 140.276 44.731C140.401 44.5396 140.493 44.3169 140.552 44.063C140.614 43.8091 140.646 43.5396 140.646 43.2544V43.1196C140.646 42.8384 140.614 42.5728 140.552 42.3228C140.493 42.0688 140.399 41.8442 140.271 41.6489C140.146 41.4536 139.985 41.3013 139.79 41.1919C139.599 41.0786 139.37 41.022 139.104 41.022C138.839 41.022 138.608 41.0786 138.413 41.1919C138.222 41.3013 138.063 41.4536 137.938 41.6489C137.813 41.8442 137.722 42.0688 137.663 42.3228C137.604 42.5728 137.575 42.8384 137.575 43.1196Z"
      fill="#F8FDFF" fill-opacity="0.7" />
    <path
      d="M147.407 40.0142V41.1392H144.313V40.0142H147.407ZM148.515 40.0142V46.354H147.103V40.0142H148.515ZM143.968 40.0142H145.362L145.192 43.1489C145.169 43.6138 145.122 44.0239 145.052 44.3794C144.985 44.731 144.896 45.0337 144.782 45.2876C144.669 45.5376 144.53 45.7407 144.366 45.897C144.202 46.0532 144.011 46.1685 143.792 46.2427C143.573 46.3169 143.327 46.354 143.054 46.354H142.614L142.608 45.1938L142.831 45.1763C142.976 45.1646 143.101 45.1274 143.206 45.0649C143.312 44.9985 143.401 44.9048 143.476 44.7837C143.554 44.6626 143.616 44.5063 143.663 44.3149C143.714 44.1235 143.753 43.897 143.78 43.6353C143.812 43.3735 143.835 43.0688 143.851 42.7212L143.968 40.0142Z"
      fill="#F8FDFF" fill-opacity="0.7" />
    <path
      d="M149.745 43.2544V43.1196C149.745 42.6626 149.812 42.2388 149.944 41.8481C150.077 41.4536 150.269 41.1118 150.519 40.8228C150.772 40.5298 151.081 40.3032 151.444 40.1431C151.812 39.979 152.226 39.897 152.687 39.897C153.151 39.897 153.565 39.979 153.929 40.1431C154.296 40.3032 154.606 40.5298 154.86 40.8228C155.114 41.1118 155.308 41.4536 155.44 41.8481C155.573 42.2388 155.64 42.6626 155.64 43.1196V43.2544C155.64 43.7114 155.573 44.1353 155.44 44.5259C155.308 44.9165 155.114 45.2583 154.86 45.5513C154.606 45.8403 154.298 46.0669 153.935 46.231C153.571 46.3911 153.159 46.4712 152.698 46.4712C152.233 46.4712 151.817 46.3911 151.45 46.231C151.087 46.0669 150.778 45.8403 150.524 45.5513C150.271 45.2583 150.077 44.9165 149.944 44.5259C149.812 44.1353 149.745 43.7114 149.745 43.2544ZM151.157 43.1196V43.2544C151.157 43.5396 151.187 43.8091 151.245 44.063C151.304 44.3169 151.396 44.5396 151.521 44.731C151.646 44.9224 151.806 45.0728 152.001 45.1821C152.196 45.2915 152.429 45.3462 152.698 45.3462C152.96 45.3462 153.187 45.2915 153.378 45.1821C153.573 45.0728 153.733 44.9224 153.858 44.731C153.983 44.5396 154.075 44.3169 154.134 44.063C154.196 43.8091 154.228 43.5396 154.228 43.2544V43.1196C154.228 42.8384 154.196 42.5728 154.134 42.3228C154.075 42.0688 153.981 41.8442 153.853 41.6489C153.728 41.4536 153.567 41.3013 153.372 41.1919C153.181 41.0786 152.952 41.022 152.687 41.022C152.421 41.022 152.19 41.0786 151.995 41.1919C151.804 41.3013 151.646 41.4536 151.521 41.6489C151.396 41.8442 151.304 42.0688 151.245 42.3228C151.187 42.5728 151.157 42.8384 151.157 43.1196Z"
      fill="#F8FDFF" fill-opacity="0.7" />
    <path d="M161.042 40.0142V41.1392H158.276V46.354H156.864V40.0142H161.042Z" fill="#F8FDFF" fill-opacity="0.7" />
    <path
      d="M163.321 44.2915L165.812 40.0142H167.224V46.354H165.812V42.0708L163.321 46.354H161.909V40.0142H163.321V44.2915Z"
      fill="#F8FDFF" fill-opacity="0.7" />
    <path
      d="M170.177 44.2915L172.667 40.0142H174.079V46.354H172.667V42.0708L170.177 46.354H168.765V40.0142H170.177V44.2915Z"
      fill="#F8FDFF" fill-opacity="0.7" />
  </symbol>
  <symbol id="logo-cut" viewBox="0 0 35 35">
    <use href="#brain-logo" width="35" height="35" />
  </symbol>
</svg>
